<svg xmlns="http://www.w3.org/2000/svg" width="80" height="75.402" viewBox="0 0 80 75.402"><defs><style>.a,.b{fill:#fff;}.a,.d{stroke:#ce383c;stroke-width:2.5px;}.c{fill:#ce383c;}.d,.f{fill:none;}.e,.g{stroke:none;}.g{fill:#ce383c;}</style></defs><g transform="translate(-643.585 -1714.974)"><g transform="translate(644 1714.974)"><g class="a" transform="translate(-0.415 12.402)"><rect class="e" width="80" height="63" rx="15"/><rect class="f" x="1.25" y="1.25" width="77.5" height="60.5" rx="13.75"/></g><g class="b" transform="translate(28.62)"><path class="e" d="M 19.4335823059082 11.82350063323975 L 3.533381462097168 11.82350063323975 C 2.274321317672729 11.82350063323975 1.250001430511475 10.79918098449707 1.250001430511475 9.540121078491211 L 1.250001430511475 3.533380746841431 C 1.250001430511475 2.274320840835571 2.274321317672729 1.250000834465027 3.533381462097168 1.250000834465027 L 19.4335823059082 1.250000834465027 C 20.69264221191406 1.250000834465027 21.71696090698242 2.274320840835571 21.71696090698242 3.533380746841431 L 21.71696090698242 9.540121078491211 C 21.71696090698242 10.79918098449707 20.69264221191406 11.82350063323975 19.4335823059082 11.82350063323975 Z"/><path class="g" d="M 3.533380508422852 2.500000953674316 C 2.963571548461914 2.500000953674316 2.500001907348633 2.963570594787598 2.500001907348633 3.533380508422852 L 2.500001907348633 9.540121078491211 C 2.500001907348633 10.10993099212646 2.963571548461914 10.57350063323975 3.533380508422852 10.57350063323975 L 19.4335823059082 10.57350063323975 C 20.00339126586914 10.57350063323975 20.46696090698242 10.10993099212646 20.46696090698242 9.540121078491211 L 20.46696090698242 3.533380508422852 C 20.46696090698242 2.963570594787598 20.00339126586914 2.500000953674316 19.4335823059082 2.500000953674316 L 3.533380508422852 2.500000953674316 M 3.533380508422852 9.5367431640625e-07 L 19.4335823059082 9.5367431640625e-07 C 21.38501167297363 9.5367431640625e-07 22.96696090698242 1.581951141357422 22.96696090698242 3.533380508422852 L 22.96696090698242 9.540121078491211 C 22.96696090698242 11.49155044555664 21.38501167297363 13.07350063323975 19.4335823059082 13.07350063323975 L 3.533380508422852 13.07350063323975 C 1.581951141357422 13.07350063323975 1.9073486328125e-06 11.49155044555664 1.9073486328125e-06 9.540121078491211 L 1.9073486328125e-06 3.533380508422852 C 1.9073486328125e-06 1.581951141357422 1.581951141357422 9.5367431640625e-07 3.533380508422852 9.5367431640625e-07 Z"/></g><g class="b" transform="translate(28.62 5.692)"><path class="e" d="M 19.4335823059082 6.131601810455322 L 3.533381462097168 6.131601810455322 C 2.147946119308472 6.131601810455322 1.339257121086121 5.588396072387695 1.250001430511475 5.370768547058105 L 1.250001430511475 2.010834932327271 C 1.339257121086121 1.79320764541626 2.147946119308472 1.250001907348633 3.533381462097168 1.250001907348633 L 19.4335823059082 1.250001907348633 C 20.81901741027832 1.250001907348633 21.62770652770996 1.79320764541626 21.71696090698242 2.010834932327271 L 21.71696090698242 5.370768547058105 C 21.62770652770996 5.588396072387695 20.81901741027832 6.131601810455322 19.4335823059082 6.131601810455322 Z"/><path class="g" d="M 3.533380508422852 2.500001907348633 C 3.071222305297852 2.500001907348633 2.72465705871582 2.579230785369873 2.500001907348633 2.658029556274414 L 2.500001907348633 4.723574161529541 C 2.72465705871582 4.802372932434082 3.071222305297852 4.881601810455322 3.533380508422852 4.881601810455322 L 19.4335823059082 4.881601810455322 C 19.8957405090332 4.881601810455322 20.24230575561523 4.802372932434082 20.46696090698242 4.723574161529541 L 20.46696090698242 2.658029556274414 C 20.24230575561523 2.579230785369873 19.8957405090332 2.500001907348633 19.4335823059082 2.500001907348633 L 3.533380508422852 2.500001907348633 M 3.533380508422852 1.9073486328125e-06 L 19.4335823059082 1.9073486328125e-06 C 21.38501167297363 1.9073486328125e-06 22.96696090698242 0.8932018280029297 22.96696090698242 1.995031833648682 L 22.96696090698242 5.386571884155273 C 22.96696090698242 6.488401889801025 21.38501167297363 7.381601810455322 19.4335823059082 7.381601810455322 L 3.533380508422852 7.381601810455322 C 1.581951141357422 7.381601810455322 1.9073486328125e-06 6.488401889801025 1.9073486328125e-06 5.386571884155273 L 1.9073486328125e-06 1.995031833648682 C 1.9073486328125e-06 0.8932018280029297 1.581951141357422 1.9073486328125e-06 3.533380508422852 1.9073486328125e-06 Z"/></g><g class="c" transform="matrix(0.891, -0.454, 0.454, 0.891, 25.702, 43.653)"><path class="e" d="M 8.300354957580566 21.25288963317871 L 5.791611671447754 19.97462463378906 L 9.279986381530762 12.80299854278564 L 9.816716194152832 11.69954872131348 L 8.723396301269531 11.14246845245361 L 1.681246519088745 7.554316997528076 L 2.695237874984741 5.564247608184814 L 9.737386703491211 9.152399063110352 L 10.85114669799805 9.719888687133789 L 11.41863632202148 8.606128692626953 L 14.94703769683838 1.681249022483826 L 17.58717727661133 3.026468992233276 L 14.05877685546875 9.951338768005371 L 13.491286277771 11.06509876251221 L 14.60504627227783 11.63258838653564 L 21.37274742126465 15.08090877532959 L 20.35875511169434 17.07098007202148 L 13.59105682373047 13.62266826629639 L 12.47729682922363 13.05517864227295 L 11.90980625152588 14.16893863677979 L 8.300354957580566 21.25288963317871 Z"/><path class="g" d="M 15.49330902099609 3.362499237060547 L 12.53239631652832 9.173618316650391 L 11.39741706848145 11.4011287689209 L 11.36093997955322 11.38254356384277 L 10.40405654907227 13.34975910186768 L 7.452408790588379 19.41793823242188 L 7.754074096679688 19.5716438293457 L 10.79604625701904 13.60144901275635 L 11.81004619598389 11.61136913299561 L 12.94501686096191 9.383849143981934 L 15.90592765808105 3.572738647460938 L 15.49330902099609 3.362499237060547 M 14.40076637268066 -1.9073486328125e-06 L 19.2684268951416 2.480197906494141 L 15.17253684997559 10.51882839202881 L 23.05399703979492 14.53463840484619 L 20.90501594543457 18.75222778320312 L 13.02356624603271 14.73642826080322 L 8.846616744995117 22.93413925170898 L 4.130796432495117 20.53129959106445 L 8.155906677246094 12.25622844696045 L -3.814697265625e-06 8.100588798522949 L 2.148965835571289 3.882999420166016 L 10.30487632751465 8.038639068603516 L 14.40076637268066 -1.9073486328125e-06 Z"/></g><line class="d" x2="76.387" transform="translate(0.49 29.864)"/></g><g class="a" transform="translate(701.585 1739.377)"><rect class="e" width="6" height="11"/><rect class="f" x="1.25" y="1.25" width="3.5" height="8.5"/></g><g class="a" transform="translate(658.585 1739.377)"><rect class="e" width="5" height="11"/><rect class="f" x="1.25" y="1.25" width="2.5" height="8.5"/></g></g></svg>